<?xml version="1.0" encoding="UTF-8" standalone="no"?>
<!DOCTYPE svg PUBLIC "-//W3C//DTD SVG 1.0//EN" "http://www.w3.org/TR/2001/REC-SVG-20010904/DTD/svg10.dtd">
<!-- Generated by Microsoft Visio 11.0, SVG Export, v1.0 address_book.svg Page-1 -->
<svg xmlns="http://www.w3.org/2000/svg" xmlns:v="http://schemas.microsoft.com/visio/2003/SVGExtensions/" width="6.22381in"
		height="3.95034in" viewBox="0 0 448.114 284.425" xml:space="preserve" color-interpolation-filters="sRGB" class="st10">
	<v:documentProperties v:langID="1033" v:viewMarkup="false"/>

	<style type="text/css">
	<![CDATA[
		.st1 {fill:#99ccff;stroke:#000000;stroke-linecap:round;stroke-linejoin:round;stroke-width:0.24}
		.st2 {fill:#000000;font-family:Arial;font-size:0.666664em}
		.st3 {fill:#ffff99;stroke:#000000;stroke-linecap:round;stroke-linejoin:round;stroke-width:0.24}
		.st4 {fill:#cc99ff;stroke:#000000;stroke-linecap:round;stroke-linejoin:round;stroke-width:0.24}
		.st5 {fill:none;stroke:none;stroke-linecap:round;stroke-linejoin:round;stroke-width:0.72}
		.st6 {fill:#000000;font-family:Courier New;font-size:0.499992em}
		.st7 {fill:#ffcc99;stroke:#000000;stroke-linecap:round;stroke-linejoin:round;stroke-width:0.24}
		.st8 {fill:#e8eef7;stroke:#000000;stroke-linecap:round;stroke-linejoin:round;stroke-width:0.24}
		.st9 {fill:#ccffcc;stroke:#000000;stroke-linecap:round;stroke-linejoin:round;stroke-width:0.24}
		.st10 {fill:none;fill-rule:evenodd;font-size:12;overflow:visible;stroke-linecap:square;stroke-miterlimit:3}
	]]>
	</style>

	<g v:mID="0" v:index="1" v:groupContext="foregroundPage">
		<v:userDefs>
			<v:ud v:nameU="SchemeName" v:val="VT4(Default)"/>
		</v:userDefs>
		<title>Page-1</title>
		<v:pageProperties v:drawingScale="0.0393701" v:pageScale="0.0393701" v:drawingUnits="24" v:shadowOffsetX="8.50394"
				v:shadowOffsetY="-8.50394"/>
		<v:layer v:name="Connector" v:index="0"/>
		<v:layer v:name="Web Site Map Shapes" v:index="1"/>
		<v:layer v:name="Flowchart" v:index="2"/>
		<g id="shape1-1" v:mID="1" v:groupContext="shape" transform="translate(22.6772,-118.346)">
			<title>Document/ file.8</title>
			<desc>DTD</desc>
			<v:userDefs>
				<v:ud v:nameU="visVersion" v:val="VT0(11):26"/>
			</v:userDefs>
			<v:textBlock v:margins="rect(2,2,2,2)"/>
			<v:textRect cx="14.1732" cy="271.137" width="28.35" height="26.5748"/>
			<path d="M18.9 248.99 L28.35 257.85 L18.9 257.85 L18.9 248.99 Z M0 248.99 L0 284.42 L28.35 284.42 L28.35 257.85 L18.9
						 257.85 L18.9 248.99 L0 248.99 Z" class="st1"/>
			<text x="5.95" y="273.54" class="st2" v:langID="1045"><v:paragraph v:horizAlign="1"/><v:tabList/>DTD</text>		</g>
		<g id="shape4-4" v:mID="4" v:groupContext="shape" transform="translate(280.63,-226.772)">
			<title>Document/ file.8.4</title>
			<desc>FO</desc>
			<v:userDefs>
				<v:ud v:nameU="visVersion" v:val="VT0(11):26"/>
			</v:userDefs>
			<v:textBlock v:margins="rect(2,2,2,2)"/>
			<v:textRect cx="14.1732" cy="271.137" width="28.35" height="26.5748"/>
			<path d="M18.9 248.99 L28.35 257.85 L18.9 257.85 L18.9 248.99 Z M0 248.99 L0 284.42 L28.35 284.42 L28.35 257.85 L18.9
						 257.85 L18.9 248.99 L0 248.99 Z" class="st3"/>
			<text x="8.62" y="273.54" class="st2" v:langID="1045"><v:paragraph v:horizAlign="1"/><v:tabList/>FO</text>		</g>
		<g id="shape5-7" v:mID="5" v:groupContext="shape" transform="translate(379.843,-226.772)">
			<title>Document/ file.8.5</title>
			<desc>PDF</desc>
			<v:userDefs>
				<v:ud v:nameU="visVersion" v:val="VT0(11):26"/>
			</v:userDefs>
			<v:textBlock v:margins="rect(2,2,2,2)"/>
			<v:textRect cx="14.1732" cy="271.137" width="28.35" height="26.5748"/>
			<path d="M18.9 248.99 L28.35 257.85 L18.9 257.85 L18.9 248.99 Z M0 248.99 L0 284.42 L28.35 284.42 L28.35 257.85 L18.9
						 257.85 L18.9 248.99 L0 248.99 Z" class="st4"/>
			<text x="6.18" y="273.54" class="st2" v:langID="1045"><v:paragraph v:horizAlign="1"/><v:tabList/>PDF</text>		</g>
		<g id="shape6-10" v:mID="6" v:groupContext="shape" transform="translate(380.409,-26.9291)">
			<title>Document/ file.8.6</title>
			<desc>HTML</desc>
			<v:userDefs>
				<v:ud v:nameU="visVersion" v:val="VT0(11):26"/>
			</v:userDefs>
			<v:textBlock v:margins="rect(2,2,2,2)"/>
			<v:textRect cx="14.1732" cy="271.137" width="28.35" height="26.5748"/>
			<path d="M18.9 248.99 L28.35 257.85 L18.9 257.85 L18.9 248.99 Z M0 248.99 L0 284.42 L28.35 284.42 L28.35 257.85 L18.9
						 257.85 L18.9 248.99 L0 248.99 Z" class="st4"/>
			<text x="3.29" y="273.54" class="st2" v:langID="1045"><v:paragraph v:horizAlign="1"/><v:tabList/>HTML</text>		</g>
		<g id="shape8-13" v:mID="8" v:groupContext="shape" transform="translate(-2.83465,-102.047)">
			<title>Sheet.8</title>
			<desc>address_book.dtd</desc>
			<v:textBlock v:margins="rect(4,4,4,4)" v:tabSpace="42.5197"/>
			<v:textRect cx="36.8504" cy="276.425" width="73.71" height="16"/>
			<rect x="0" y="268.425" width="73.7008" height="16" class="st5"/>
			<text x="8.05" y="278.22" class="st6" v:langID="1045"><v:paragraph v:horizAlign="1"/><v:tabList/>address_book.dtd</text>		</g>
		<g id="shape9-16" v:mID="9" v:groupContext="shape" transform="translate(73.7008,-103.055)">
			<title>Sheet.9</title>
			<desc>address_book.xml</desc>
			<v:textBlock v:margins="rect(4,4,4,4)" v:tabSpace="42.5197"/>
			<v:textRect cx="52" cy="276.425" width="104" height="16"/>
			<rect x="0" y="268.425" width="104" height="16" class="st5"/>
			<text x="23.2" y="278.82" class="st6" v:langID="1045"><v:paragraph v:horizAlign="1"/><v:tabList/>address_book.xml</text>		</g>
		<g id="shape11-19" v:mID="11" v:groupContext="shape" transform="translate(203.118,-62.3622)">
			<title>Sheet.11</title>
			<desc>address_book_xhtml.xsl</desc>
			<v:textBlock v:margins="rect(4,4,4,4)" v:tabSpace="42.5197"/>
			<v:textRect cx="52" cy="276.425" width="104" height="16"/>
			<rect x="0" y="268.425" width="104" height="16" class="st5"/>
			<text x="12.39" y="278.82" class="st6" v:langID="1045"><v:paragraph v:horizAlign="1"/><v:tabList/>address_book_xhtml.xsl</text>		</g>
		<g id="shape12-22" v:mID="12" v:groupContext="shape" transform="translate(243.78,-213.102)">
			<title>Sheet.12</title>
			<desc>address_book.fo</desc>
			<v:textBlock v:margins="rect(4,4,4,4)" v:tabSpace="42.5197"/>
			<v:textRect cx="52" cy="276.425" width="104" height="16"/>
			<rect x="0" y="268.425" width="104" height="16" class="st5"/>
			<text x="25" y="278.82" class="st6" v:langID="1045"><v:paragraph v:horizAlign="1"/><v:tabList/>address_book.fo</text>		</g>
		<g id="shape13-25" v:mID="13" v:groupContext="shape" transform="translate(340.157,-213.102)">
			<title>Sheet.13</title>
			<desc>address_book.pdf</desc>
			<v:textBlock v:margins="rect(4,4,4,4)" v:tabSpace="42.5197"/>
			<v:textRect cx="52" cy="276.425" width="104" height="16"/>
			<rect x="0" y="268.425" width="104" height="16" class="st5"/>
			<text x="23.2" y="278.82" class="st6" v:langID="1045"><v:paragraph v:horizAlign="1"/><v:tabList/>address_book.pdf</text>		</g>
		<g id="shape14-28" v:mID="14" v:groupContext="shape" transform="translate(343.874,-14.6772)">
			<title>Sheet.14</title>
			<desc>address_book.html</desc>
			<v:textBlock v:margins="rect(4,4,4,4)" v:tabSpace="42.5197"/>
			<v:textRect cx="52" cy="276.425" width="104" height="16"/>
			<rect x="0" y="268.425" width="104" height="16" class="st5"/>
			<text x="21.4" y="278.82" class="st6" v:langID="1045"><v:paragraph v:horizAlign="1"/><v:tabList/>address_book.html</text>		</g>
		<g id="shape3-31" v:mID="3" v:groupContext="shape" transform="translate(110.551,-119.055)">
			<title>Document/ file.8.3</title>
			<desc>XML</desc>
			<v:userDefs>
				<v:ud v:nameU="visVersion" v:val="VT0(11):26"/>
			</v:userDefs>
			<v:textBlock v:margins="rect(2,2,2,2)" v:tabSpace="42.5197"/>
			<v:textRect cx="14.1732" cy="271.137" width="28.35" height="26.5748"/>
			<path d="M18.9 248.99 L28.35 257.85 L18.9 257.85 L18.9 248.99 Z M0 248.99 L0 284.42 L28.35 284.42 L28.35 257.85 L18.9
						 257.85 L18.9 248.99 L0 248.99 Z" class="st7"/>
			<text x="5.95" y="273.54" class="st2" v:langID="1045"><v:paragraph v:horizAlign="1"/><v:tabList/>XML</text>		</g>
		<g id="shape15-34" v:mID="15" v:groupContext="shape" transform="translate(111.96,-181.998) rotate(-37.2348) scale(-1,1)">
			<title>45 degree single</title>
			<v:userDefs>
				<v:ud v:nameU="visVersion" v:val="VT0(11):26"/>
			</v:userDefs>
			<path d="M0 278.76 L5.67 273.09 L5.67 276.83 L178.02 276.83 L178.02 280.68 L5.67 280.68 L5.67 284.42 L0 278.76 Z"
					class="st8"/>
		</g>
		<g id="shape16-36" v:mID="16" v:groupContext="shape" transform="translate(479.759,-20.6709) rotate(20.8796) scale(-1,1)">
			<title>45 degree single.16</title>
			<v:userDefs>
				<v:ud v:nameU="visVersion" v:val="VT0(11):26"/>
			</v:userDefs>
			<path d="M0 278.76 L5.67 273.09 L5.67 276.83 L258.49 276.83 L258.49 280.68 L5.67 280.68 L5.67 284.42 L0 278.76 Z"
					class="st8"/>
		</g>
		<g id="shape17-38" v:mID="17" v:groupContext="shape" transform="translate(379.843,-238.819) scale(-1,1)">
			<title>45 degree single.17</title>
			<v:userDefs>
				<v:ud v:nameU="visVersion" v:val="VT0(11):26"/>
			</v:userDefs>
			<path d="M0 278.76 L5.67 273.09 L5.67 276.83 L70.87 276.83 L70.87 280.68 L5.67 280.68 L5.67 284.42 L0 278.76 Z"
					class="st8"/>
		</g>
		<g id="shape2-40" v:mID="2" v:groupContext="shape" transform="translate(201.26,-181.417)">
			<title>Document/ file.8.2</title>
			<desc>XSL</desc>
			<v:userDefs>
				<v:ud v:nameU="visVersion" v:val="VT0(11):26"/>
			</v:userDefs>
			<v:textBlock v:margins="rect(2,2,2,2)"/>
			<v:textRect cx="14.1732" cy="271.137" width="28.35" height="26.5748"/>
			<path d="M18.9 248.99 L28.35 257.85 L18.9 257.85 L18.9 248.99 Z M0 248.99 L0 284.42 L28.35 284.42 L28.35 257.85 L18.9
						 257.85 L18.9 248.99 L0 248.99 Z" class="st9"/>
			<text x="6.61" y="273.54" class="st2" v:langID="1045"><v:paragraph v:horizAlign="1"/><v:tabList/>XSL</text>		</g>
		<g id="shape7-43" v:mID="7" v:groupContext="shape" transform="translate(240.945,-77.9528)">
			<title>Document/ file.8.7</title>
			<desc>XSL</desc>
			<v:userDefs>
				<v:ud v:nameU="visVersion" v:val="VT0(11):26"/>
			</v:userDefs>
			<v:textBlock v:margins="rect(2,2,2,2)"/>
			<v:textRect cx="14.1732" cy="271.137" width="28.35" height="26.5748"/>
			<path d="M18.9 248.99 L28.35 257.85 L18.9 257.85 L18.9 248.99 Z M0 248.99 L0 284.42 L28.35 284.42 L28.35 257.85 L18.9
						 257.85 L18.9 248.99 L0 248.99 Z" class="st9"/>
			<text x="6.61" y="273.54" class="st2" v:langID="1045"><v:paragraph v:horizAlign="1"/><v:tabList/>XSL</text>		</g>
		<g id="shape10-46" v:mID="10" v:groupContext="shape" transform="translate(158.74,-164.409)">
			<title>Sheet.10</title>
			<desc>address_book_fo.xsl</desc>
			<v:textBlock v:margins="rect(4,4,4,4)" v:tabSpace="42.5197"/>
			<v:textRect cx="52" cy="276.425" width="104" height="16"/>
			<rect x="0" y="268.425" width="104" height="16" class="st5"/>
			<text x="17.8" y="278.82" class="st6" v:langID="1045"><v:paragraph v:horizAlign="1"/><v:tabList/>address_book_fo.xsl</text>		</g>
		<g id="shape18-49" v:mID="18" v:groupContext="shape" transform="translate(292.85,-244.787)">
			<title>Sheet.18</title>
			<desc>XSL:FO Engine</desc>
			<v:textBlock v:margins="rect(4,4,4,4)" v:tabSpace="42.5197"/>
			<v:textRect cx="52" cy="276.425" width="104" height="16"/>
			<rect x="0" y="268.425" width="104" height="16" class="st5"/>
			<text x="24.21" y="278.82" class="st2" v:langID="1045"><v:paragraph v:horizAlign="1"/><v:tabList/>XSL:FO Engine</text>		</g>
		<g id="shape19-52" v:mID="19" v:groupContext="shape" transform="translate(-42.4222,-73.9484) rotate(-37.8)">
			<title>Sheet.19</title>
			<desc>XSLT Processor</desc>
			<v:textBlock v:margins="rect(4,4,4,4)" v:tabSpace="42.5197"/>
			<v:textRect cx="52" cy="276.425" width="104" height="16"/>
			<rect x="0" y="268.425" width="104" height="16" class="st5"/>
			<text x="22.88" y="278.82" class="st2" v:langID="1045"><v:paragraph v:horizAlign="1"/><v:tabList/>XSLT Processor</text>		</g>
		<g id="shape20-55" v:mID="20" v:groupContext="shape" transform="translate(232.835,-103.445) rotate(20.6)">
			<title>Sheet.20</title>
			<desc>XSLT Processor</desc>
			<v:textBlock v:margins="rect(4,4,4,4)" v:tabSpace="42.5197"/>
			<v:textRect cx="52" cy="276.425" width="104" height="16"/>
			<rect x="0" y="268.425" width="104" height="16" class="st5"/>
			<text x="22.88" y="278.82" class="st2" v:langID="1045"><v:paragraph v:horizAlign="1"/><v:tabList/>XSLT Processor</text>		</g>
		<g id="shape21-58" v:mID="21" v:groupContext="shape" transform="translate(47.7094,-130.037) rotate(-0.68206)">
			<title>45 degree double</title>
			<v:userDefs>
				<v:ud v:nameU="visVersion" v:val="VT0(11):26"/>
			</v:userDefs>
			<path d="M0 278.42 L6.01 272.41 L6.01 276.38 L53.53 276.38 L53.53 272.41 L59.53 278.42 L53.53 284.42 L53.53 280.46 L6.01
						 280.46 L6.01 284.42 L0 278.42 Z" class="st8"/>
		</g>
		<g id="shape22-60" v:mID="22" v:groupContext="shape" transform="translate(28.3465,-137.071)">
			<title>Sheet.22</title>
			<desc>Validation</desc>
			<v:textBlock v:margins="rect(4,4,4,4)" v:tabSpace="42.5197"/>
			<v:textRect cx="52" cy="276.425" width="104" height="16"/>
			<rect x="0" y="268.425" width="104" height="16" class="st5"/>
			<text x="34.43" y="278.82" class="st2" v:langID="1045"><v:paragraph v:horizAlign="1"/><v:tabList/>Validation</text>		</g>
	</g>
</svg>
